<?xml version="1.0" encoding="UTF-8"?>
<svg version="1.1" xmlns="http://www.w3.org/2000/svg" width="1042" height="1170">
<path d="M0 0 C24.29500204 6.49424093 45.92300081 16.82730596 66 32 C67.36705078 33.02673828 67.36705078 33.02673828 68.76171875 34.07421875 C115.77621415 70.96900213 136.49689351 125.60595946 148.40894842 182.23241019 C149.29651716 186.43693843 150.19938621 190.638181 151.10061646 194.83979797 C152.79713385 202.75938078 154.48148848 210.68149233 156.16069424 218.6047619 C159.17745496 232.83665245 162.21776183 247.06352958 165.25909817 261.29018527 C166.32341341 266.27103999 167.38308033 271.25285433 168.43868709 276.23556173 C169.09345801 279.32388222 169.75089864 282.41163054 170.40888405 285.49926758 C170.71244276 286.9268456 171.01480548 288.35467856 171.31586647 289.78278542 C171.72759649 291.73526768 172.14394992 293.68677325 172.56051636 295.63822937 C172.79163557 296.72850276 173.02275478 297.81877615 173.26087761 298.94208813 C174.00811725 302.03358285 174.95056569 304.99896725 176 308 C183.19194471 295.18059751 190.36787393 282.35279271 197.5 269.5 C202.31503212 260.82299506 207.14642629 252.15550556 212 243.5 C216.83029263 234.88483245 221.64244443 226.25983159 226.4375 217.625 C227.05866699 216.50641602 227.67983398 215.38783203 228.31982422 214.23535156 C231.48987825 208.52515333 234.65771012 202.81372742 237.82421875 197.1015625 C243.65586297 186.58665938 249.50397424 176.08280472 255.4375 165.625 C262.12936271 153.82824063 268.66916321 141.94916236 275.20811462 130.067276 C279.44827755 122.36497223 283.72223647 114.68146481 288 107 C298.56234252 110.39174699 304.63461668 123.65145913 309.51953125 132.9453125 C335.69167134 184.96205711 341.56472284 247.49274444 345.6875 304.8125 C345.74843842 305.65830627 345.80937683 306.50411255 345.87216187 307.37554932 C347.5077316 330.42433674 348.14622782 353.39010534 348.09765625 376.49609375 C348.09578555 379.15365177 348.09431537 381.81120706 348.09336853 384.46876526 C348.09029899 390.67996868 348.08214668 396.89115385 348.07201904 403.10234934 C348.06071932 410.19101613 348.05531307 417.27968394 348.05032361 424.36835754 C348.03995871 438.91224764 348.02244708 453.45612357 348 468 C349.11988805 466.8900795 350.23834512 465.77871504 351.35620117 464.66674805 C351.97919601 464.04801315 352.60219086 463.42927826 353.24406433 462.79179382 C355.416831 460.57465685 357.37601615 458.23780502 359.3125 455.8125 C362.40184518 451.96775002 365.54585084 448.18692576 368.75 444.4375 C401.53335824 404.9871897 427.12273235 358.43567203 450.43847656 313.02587891 C453.00064434 308.0609778 455.61951292 303.1266195 458.24926758 298.19726562 C460.22328277 294.49187358 462.13855891 290.763223 464 287 C468.66622784 291.08834808 470.74547814 297.19194312 473.375 302.6875 C473.83602615 303.64678909 473.83602615 303.64678909 474.30636597 304.62545776 C508.17880105 375.34607388 529.31759012 452.84912339 554 631 C554.05009216 631.69949768 554.10018433 632.39899536 554.15179443 633.11968994 C556.09507937 661.29774903 556.24490636 689.64024634 556.25 717.875 C556.25029457 718.63408283 556.25058914 719.39316566 556.25089264 720.17525101 C556.25232836 743.23450435 556.05940945 766.10544137 553 789 C552.90054077 789.76179565 552.80108154 790.52359131 552.6986084 791.30847168 C545.99562295 842.45522118 532.91699528 891.76807518 512 939 C511.47672119 940.19544434 511.47672119 940.19544434 510.94287109 941.41503906 C500.42745299 965.30547147 486.55752295 988.06283005 471 1009 C470.39720215 1009.81331787 470.39720215 1009.81331787 469.78222656 1010.64306641 C454.14245664 1031.63262064 436.24083642 1052.32903712 416 1069 C415.20916016 1069.66153076 415.20916016 1069.66153076 414.40234375 1070.33642578 C344.30130621 1128.91167178 257.70106149 1157.66956272 106.3203125 1170.203125 C104.15506468 1170.21009737 101.98981709 1170.21713839 99.8245697 1170.22424316 C92.92471068 1170.24357709 86.02488315 1170.24841968 79.125 1170.25 C77.36738405 1170.25088371 77.36738405 1170.25088371 75.57426071 1170.25178528 C42.1734355 1170.26366076 8.88841568 1170.18296105 -24.40710449 1167.22784424 C-27.04961384 1166.99564031 -29.6929704 1166.77722765 -32.33691406 1166.56201172 C-108.99104781 1160.26571168 -187.07199075 1146.44575444 -275 1109 C-275.82628906 1108.63310059 -276.65257812 1108.26620117 -277.50390625 1107.88818359 C-309.01999471 1093.83611894 -339.21610204 1075.26853755 -365.20507812 1052.52392578 C-367.50269055 1050.57320533 -369.86272072 1048.70491991 -372.21484375 1046.8203125 C-378.02770787 1042.07672407 -383.34667533 1036.95031272 -388.625 1031.625 C-389.5015625 1030.75617188 -390.378125 1029.88734375 -391.28125 1028.9921875 C-396.50779516 1023.7501333 -401.3387949 1018.33015988 -405.95043945 1012.53930664 C-408.0839421 1009.89599979 -410.30984079 1007.35456335 -412.5625 1004.8125 C-462.31782236 945.07516118 -485.94048103 862.13345713 -486.203125 785.3046875 C-486.21018627 783.91663071 -486.21731897 782.52857428 -486.22451782 781.14051819 C-486.24408531 776.7186735 -486.24921071 772.29688391 -486.25 767.875 C-486.25029457 767.12106586 -486.25058914 766.36713173 -486.25089264 765.5903511 C-486.25227744 743.66217961 -486.11863624 721.90877654 -483.27539062 700.12701416 C-482.9783027 697.83241819 -482.69556239 695.53630454 -482.4140625 693.23974609 C-475.18431454 634.86748859 -461.25608193 577.8594393 -443 522 C-442.74023376 521.2022113 -442.48046753 520.40442261 -442.21282959 519.5824585 C-426.31186957 470.80894956 -406.9247562 423.36337047 -385 377 C-384.52675293 375.99710937 -384.05350586 374.99421875 -383.56591797 373.9609375 C-380.09229773 366.61691309 -376.56416563 359.30048237 -373 352 C-372.71104858 351.40771606 -372.42209717 350.81543213 -372.12438965 350.2052002 C-364.03117528 333.6302534 -355.59141635 317.37101993 -346.36572266 301.38964844 C-343.46789813 296.31923255 -340.7259418 291.16442064 -338 286 C-337.34 286 -336.68 286 -336 286 C-333.06057055 296.25963769 -330.12925537 306.52126753 -327.24609375 316.796875 C-309.19129947 397.06687791 -309.19129947 397.06687791 -271 467 C-270.81372239 464.68239881 -270.62773573 462.36477496 -270.44213867 460.04711914 C-270.2675128 457.87174626 -270.09184045 455.69645721 -269.9152832 453.52124023 C-269.43256695 447.54229799 -268.9640492 441.56326418 -268.53479004 435.58027649 C-262.32849961 349.16811302 -248.61284718 260.99962305 -162.4921875 118 C-159.45912873 115.56594656 -156.48848809 113.70548307 -153 112 C-151.63718886 114.72562227 -151.65726257 117.13307587 -151.421875 120.17578125 C-151.26259521 122.1088916 -151.26259521 122.1088916 -151.10009766 124.08105469 C-151.01541229 125.11474182 -151.01541229 125.11474182 -150.92901611 126.16931152 C-146.95878434 173.70109422 -136.90651499 226.39931666 -104 263 C-103.24332031 263.85078125 -102.48664063 264.7015625 -101.70703125 265.578125 C-94.33712498 273.41691601 -85.21007004 280.32207608 -75 284 C-74.86851562 282.13408203 -74.86851562 282.13408203 -74.734375 280.23046875 C-73.84946425 271.4957894 -71.97943965 262.91084558 -70.25 254.3125 C-69.95805756 252.85682114 -69.95805756 252.85682114 -69.66021729 251.37173462 C-55.35821094 180.42148372 -35.96974443 110.49583832 -14 41.5625 C-13.54451782 40.13235062 -13.54451782 40.13235062 -13.07983398 38.67330933 C-8.9380796 25.70319007 -4.55849125 12.8294164 0 0 Z " fill="#D0651C" transform="translate(486,0)"/>
<path d="M0 0 C0.81581543 0.08749512 1.63163086 0.17499023 2.47216797 0.26513672 C13.61450027 1.51425847 24.35768208 3.382775 35 7 C35.71333496 7.23702637 36.42666992 7.47405273 37.16162109 7.71826172 C60.2647209 15.46794333 79.52426971 27.0790548 97 44 C97.75410156 44.71542969 97.75410156 44.71542969 98.5234375 45.4453125 C109.25268734 55.62993037 118.83478839 66.97449942 126 80 C126 80.66 126 81.32 126 82 C126.7528125 82.00257813 127.505625 82.00515625 128.28125 82.0078125 C149.41541545 82.77726027 168.16379734 94.35580479 182.3125 109.5 C186.34458067 114.05940222 189.84163771 118.80025721 193 124 C192.67 124.66 192.34 125.32 192 126 C191.56171875 125.56429687 191.1234375 125.12859375 190.671875 124.6796875 C180.76539892 115.37726483 170.51511092 111.68577024 157.0859375 111.8515625 C144.30050675 112.4665579 134.58054315 117.74958854 125 126 C124.40574219 126.49886719 123.81148437 126.99773437 123.19921875 127.51171875 C107.12697474 142.17995064 98.1721255 166.97060384 96.79345703 188.17700195 C96.69787605 191.41264089 96.67066828 194.63801896 96.6875 197.875 C96.69313965 199.01759277 96.6987793 200.16018555 96.70458984 201.33740234 C97.01749264 223.08879356 104.34149173 242.89446667 118.94921875 259.06640625 C120.93781399 261.21300743 120.93781399 261.21300743 124 262 C126.80918199 260.87213073 126.80918199 260.87213073 129.8984375 259.1328125 C131.1017226 258.4921825 132.30501047 257.85155771 133.50830078 257.2109375 C134.45434174 256.69998535 134.45434174 256.69998535 135.41949463 256.17871094 C138.70795812 254.40674447 142.01664393 252.67379525 145.328125 250.9453125 C145.98777252 250.60099182 146.64742004 250.25667114 147.32705688 249.9019165 C155.9971699 245.40728034 164.91715771 241.57752768 174 238 C174.77923828 237.6915918 175.55847656 237.38318359 176.36132812 237.06542969 C189.34350302 231.9819175 202.60839674 227.85806856 216 224 C216.7930957 223.77070801 217.58619141 223.54141602 218.40332031 223.30517578 C253.40694668 213.31818001 287.33846959 209.51236945 323.5703125 209.796875 C324.41727188 209.80127594 325.26423126 209.80567688 326.13685608 209.81021118 C330.85311387 209.86591677 335.34692839 210.22097543 340 211 C340 211.33 340 211.66 340 212 C338.741875 212.17015625 337.48375 212.3403125 336.1875 212.515625 C313.26126309 215.71002452 292.23945829 220.90957639 274 236 C273.27683594 236.56203125 272.55367187 237.1240625 271.80859375 237.703125 C261.70627496 245.90766474 253.27326993 259.21466645 251.24609375 272.171875 C249.76466019 289.19660357 252.40300809 303.50349611 263.48046875 317.1796875 C276.1143632 331.90027516 293.27278607 342.08794389 312 347 C312.67385742 347.18046875 313.34771484 347.3609375 314.04199219 347.546875 C344.55464002 355.45212118 376.87242618 351.50861421 404.734375 336.9296875 C411.0185031 333.21633908 417.10472759 328.97200225 422.2109375 323.73046875 C424 322 424 322 426 322 C428.21772235 348.8590818 415.58316186 380.46183833 398.6484375 400.9453125 C376.49850022 426.79516473 346.04635874 439.01396671 312.39306641 441.7890625 C275.81080681 444.06327982 239.23384071 439.47312899 203.375 432.4375 C202.36195801 432.23979004 201.34891602 432.04208008 200.30517578 431.83837891 C188.12982583 429.3574954 188.12982583 429.3574954 183 427 C182.67 426.34 182.34 425.68 182 425 C179.91392967 424.50056126 177.80303089 424.10448208 175.6875 423.75 C148.85141737 418.7734704 123.65046956 407.61342154 102 391 C104.98851565 387.81224997 108.11995884 385.06916265 111.5625 382.375 C115.6117143 379.17442343 119.49838516 375.84862174 123.3125 372.375 C124.76076172 371.05628906 124.76076172 371.05628906 126.23828125 369.7109375 C129.08803322 366.91358549 131.58820337 364.18039116 134 361 C133.96624167 358.67828408 133.96624167 358.67828408 133 357 C129.87312189 356.45279633 127.77916185 356.47574913 125.1015625 358.27734375 C122.34328285 360.68129894 119.75447738 363.20370015 117.23828125 365.859375 C104.44953537 379.2861711 87.92195105 388.87329313 70.9375 396 C69.90230225 396.43650879 69.90230225 396.43650879 68.84619141 396.88183594 C64.54758689 398.60797306 60.60909221 399.52051056 56 400 C56 402.31 56 404.62 56 407 C71.0154043 408.38841067 83.33927548 402.56424643 96 395 C96.62003906 395.53367187 97.24007813 396.06734375 97.87890625 396.6171875 C104.93639171 402.55492636 112.22185922 407.88115993 120.04052734 412.76806641 C121.30829746 413.56512198 122.56723551 414.37647834 123.81494141 415.20458984 C138.02458986 424.5452249 154.5651914 426.92119949 171 430 C171.02433105 431.05711182 171.04866211 432.11422363 171.07373047 433.20336914 C171.34981833 441.1936175 171.74204701 447.55049381 176.125 454.4375 C177.0445268 456.0363138 177.95389587 457.64099365 178.85546875 459.25 C179.3561084 460.14203125 179.85674805 461.0340625 180.37255859 461.953125 C183.67890803 468.14323016 186.5458206 474.54575527 189.4375 480.9375 C189.75925201 481.64812592 190.08100403 482.35875183 190.4125061 483.09091187 C207.99542116 522.05849794 227.47777886 566.02210917 227.0625 609.5625 C227.05798828 610.47580078 227.05347656 611.38910156 227.04882812 612.33007812 C227.0371874 614.55345738 227.02083851 616.77669121 227 619 C170.49850973 639.88848198 108.25538305 647.08362612 48.3203125 647.203125 C46.15506468 647.21009737 43.98981709 647.21713839 41.8245697 647.22424316 C34.92471068 647.24357709 28.02488315 647.24841968 21.125 647.25 C19.36738405 647.25088371 19.36738405 647.25088371 17.57426071 647.25178528 C-15.8265645 647.26366076 -49.11158432 647.18296105 -82.40710449 644.22784424 C-85.04961384 643.99564031 -87.6929704 643.77722765 -90.33691406 643.56201172 C-166.98950897 637.26583808 -245.08072284 623.45032012 -351 577 C-351.45028508 559.50320851 -343.01812382 542.16519307 -335.9375 526.625 C-335.22775024 525.05625122 -335.22775024 525.05625122 -334.50366211 523.45581055 C-331.7753095 517.52525488 -328.82978145 511.85597374 -325.50146484 506.24267578 C-319.12530551 495.4743877 -316.55292919 485.37373979 -315 473 C-314.41734375 472.82460693 -313.8346875 472.64921387 -313.234375 472.46850586 C-279.36283938 462.19320805 -263.76999797 449.35144801 -247 418 C-240.44546632 405.44934614 -235.12984746 392.68744857 -230.74072266 379.23388672 C-230.07176393 377.21642715 -229.366338 375.21880459 -228.63671875 373.22265625 C-219.03454089 346.31872137 -214.80843647 315.94181947 -214.8671875 287.453125 C-214.86623077 286.3982489 -214.86527405 285.3433728 -214.86428833 284.25653076 C-214.86361304 282.0414626 -214.86542145 279.82639239 -214.86962891 277.61132812 C-214.8749647 274.27208874 -214.8696726 270.93298517 -214.86328125 267.59375 C-214.85580161 250.31464874 -215.67926777 233.36984239 -218.0625 216.25 C-218.16782043 215.48764038 -218.27314087 214.72528076 -218.38165283 213.93981934 C-221.80312432 189.5305948 -227.24569588 165.49896335 -234.5546875 141.9609375 C-235.03744015 140.30757803 -235.51923459 138.65393842 -236 137 C-236.27062256 136.18450684 -236.54124512 135.36901367 -236.82006836 134.52880859 C-238.60398156 128.19887436 -237.52457754 124.50173619 -234.46728516 118.75390625 C-233.92120605 117.80386719 -233.37512695 116.85382813 -232.8125 115.875 C-232.26384277 114.87597656 -231.71518555 113.87695312 -231.14990234 112.84765625 C-226.67756178 104.84546664 -221.8631807 96.99569477 -216.29321289 89.70288086 C-215.39051285 88.51422072 -214.5303581 87.29257145 -213.70483398 86.04907227 C-211.70230008 83.27961048 -210.18432368 81.35133687 -206.83886719 80.35888672 C-204.15159313 80.06310406 -201.51576207 79.97612777 -198.8125 79.9375 C-188.05583606 79.41361173 -177.65265254 77.97831582 -167.0625 76.125 C-166.33995026 76.00148163 -165.61740051 75.87796326 -164.87295532 75.7507019 C-149.88508189 73.18330415 -135.15085404 69.80282766 -120.5625 65.5 C-119.57830078 65.21769531 -118.59410156 64.93539062 -117.58007812 64.64453125 C-111.97864878 63.00599269 -106.57245356 61.12434644 -101.17797852 58.89746094 C-98.54184703 57.81121283 -95.86697173 56.84865639 -93.1875 55.875 C-66.5179161 45.58367821 -32.23773754 29.07416785 -17.1875 3.3125 C-13.04289616 -2.36886707 -6.25090848 -0.71663828 0 0 Z " fill="#F7CD5D" transform="translate(544,523)"/>
<path d="M0 0 C31.82680727 9.2964901 53.99970498 29.63854325 70.01171875 58.33203125 C92.33678218 99.35657062 101.06959487 146.3015296 103.61029053 192.57009888 C105.2299071 221.54402733 108.27928855 250.2756568 111.63842773 279.09790039 C113.36991748 294.03072151 114.90757926 308.98292709 116.4375 323.9375 C116.69903168 326.48576096 116.9605869 329.0340195 117.22216797 331.58227539 C117.81734955 337.38792281 118.40996991 343.19382684 119 349 C122.09659517 345.15048796 125.08307126 341.23680388 128 337.25 C128.47638916 336.59950684 128.95277832 335.94901367 129.44360352 335.27880859 C135.05769118 327.58654765 140.52755672 319.79328243 146 312 C147.97744884 309.18628753 149.9565907 306.37377732 151.9375 303.5625 C152.43056641 302.86253906 152.92363281 302.16257812 153.43164062 301.44140625 C157.0582027 296.30495257 160.74117962 291.21138485 164.4375 286.125 C168.9409242 279.92462359 173.32106705 273.65285332 177.625 267.3125 C181.93328449 260.9662878 186.34336733 254.72068317 190.90893555 248.55737305 C196.40374203 241.13117937 201.69147749 233.55984359 207 226 C208.97744884 223.18628753 210.9565907 220.37377732 212.9375 217.5625 C213.43056641 216.86253906 213.92363281 216.16257812 214.43164062 215.44140625 C218.0582027 210.30495257 221.74117962 205.21138485 225.4375 200.125 C229.9409242 193.92462359 234.32106705 187.65285332 238.625 181.3125 C242.92466248 174.97898823 247.32318476 168.74361231 251.88256836 162.59472656 C257.38889806 155.15849965 262.68723665 147.5750919 268 140 C282.52393164 153.64220898 286.21077661 178.23489691 290 197 C290.21011719 198.03318359 290.42023438 199.06636719 290.63671875 200.13085938 C296.66936202 230.34891793 299.48999461 261.0025851 300.89285278 291.75546265 C301.00551101 294.11544563 301.13573294 296.47414502 301.26538086 298.83325195 C302.32475421 319.60359659 302.18732303 340.40241791 302.18530273 361.19360352 C302.1852221 365.57222684 302.19207627 369.95074413 302.20581055 374.3293457 C302.27726799 397.47585111 302.12752556 420.57411434 301.05078125 443.69921875 C300.98595582 445.09712111 300.98595582 445.09712111 300.91982079 446.52326393 C300.79506433 449.14693543 300.66387714 451.77016385 300.52856445 454.39331055 C300.49056292 455.15180235 300.45256138 455.91029415 300.41340828 456.69177055 C300.14961418 461.49868392 299.64354619 466.228741 299 471 C317.38162628 457.47924023 334.20727988 442.84845109 350.375 426.75 C351.12418701 426.00548584 351.87337402 425.26097168 352.64526367 424.49389648 C357.30112751 419.8245419 361.71674406 415.01198126 366 410 C366.87746979 408.99076857 367.75506347 407.98164483 368.6328125 406.97265625 C397.33191749 373.46037848 421.00710064 336.2668972 441 297 C441.66 297 442.32 297 443 297 C445.89651142 319.23807704 448.38751681 341.49300118 450.5625 363.8125 C450.71593542 365.38027005 450.86937789 366.94803941 451.02282715 368.51580811 C454.46172371 403.72964597 456.86082285 438.9136267 458.625 474.25 C458.68780151 475.50685608 458.75060303 476.76371216 458.81530762 478.05865479 C459.24238436 486.70447591 459.63046112 495.35154561 460 504 C460.05118988 505.13688263 460.10237976 506.27376526 460.15512085 507.44509888 C461.29757805 533.39963866 461.11799966 559.36522776 461.06866455 585.33905029 C461.05826832 591.40767054 461.05383271 597.47629521 461.04882812 603.54492188 C461.03823729 615.36329253 461.02126601 627.18164405 461 639 C458.01915405 637.81728274 455.09388294 636.60838922 452.21484375 635.1953125 C432.22714193 625.4960172 413.38025717 621.76689753 391.23730469 621.15771484 C389 621 389 621 385.82861328 620.49951172 C381.38232275 619.91941285 377.04855541 619.82017186 372.5703125 619.796875 C371.67144821 619.78977005 370.77258392 619.7826651 369.84648132 619.77534485 C304.02929241 619.37405292 241.03515545 636.61370121 182.5234375 666.70605469 C179.0289887 668.49790634 175.5157681 670.25040785 172 672 C156.00531785 659.00939521 147.93011197 640.14491406 145 620 C143.29723976 590.26361432 148.67067664 561.84105443 169 539 C169.62648438 538.29101562 170.25296875 537.58203125 170.8984375 536.8515625 C180.3546357 526.77781667 191.9415021 520.48944942 205.82421875 519.875 C219.30577251 519.604354 229.61047535 523.38401766 239.6015625 532.64453125 C240.06304688 533.09183594 240.52453125 533.53914062 241 534 C231.5521291 515.64295259 215.92120244 503.67745125 197 496 C196.22140625 495.68289063 195.4428125 495.36578125 194.640625 495.0390625 C191.27650129 493.7990023 188.52787535 493.01001028 184.91015625 492.94140625 C176.54903871 492.61944957 176.54903871 492.61944957 173.63574219 489.57373047 C171.30645535 486.33263273 169.43231562 482.85404332 167.5078125 479.36328125 C163.67035419 472.43124551 158.38253687 466.76225728 153 461 C152.13133301 460.06559082 152.13133301 460.06559082 151.24511719 459.11230469 C130.67907022 437.21870224 105.90465473 423.02529237 77 415 C76.22301758 414.76297363 75.44603516 414.52594727 74.64550781 414.28173828 C67.31378036 412.1254263 60.09184745 411.13418474 52.5 410.375 C50.19762576 410.13559383 47.89552544 409.89353396 45.59375 409.6484375 C44.59021484 409.54708496 43.58667969 409.44573242 42.55273438 409.34130859 C40 409 40 409 37 408 C38.35586539 404.36572163 40.02084985 400.96710762 41.81787109 397.53198242 C45.79391041 389.88935535 48.92473869 382.39934707 51 374 C51.33644531 372.65228516 51.33644531 372.65228516 51.6796875 371.27734375 C54.97781549 355.93878961 53.69406987 340.02060891 45.671875 326.37890625 C43.21604264 322.88450928 40.52181282 320.38574417 37 318 C36.13375 317.38125 35.2675 316.7625 34.375 316.125 C27.79399649 313.93133216 20.01588513 313.64175479 13.625 316.625 C12.38970375 317.37389835 11.1792247 318.16559323 10 319 C9.443125 319.37769531 8.88625 319.75539063 8.3125 320.14453125 C3.67072755 323.70107449 0.32733018 328.30368511 -3.14550781 332.94970703 C-7.12734934 338.26136786 -11.46582434 343.14821301 -16 348 C-20.58940721 343.80930285 -23.81371177 339.07121773 -27.1875 333.875 C-27.72052734 333.06417969 -28.25355469 332.25335938 -28.80273438 331.41796875 C-29.78807966 329.91826083 -30.77103462 328.41697749 -31.75073242 326.91357422 C-32.82414913 325.26936078 -33.91079969 323.63380046 -35 322 C-37.11673077 321.60512608 -37.11673077 321.60512608 -39.5390625 321.765625 C-40.43786133 321.79333984 -41.33666016 321.82105469 -42.26269531 321.84960938 C-56.75750929 322.6459709 -70.8598274 324.7386924 -85 328 C-85.92216309 328.21140625 -86.84432617 328.4228125 -87.79443359 328.640625 C-101.75110803 331.90390181 -114.88199604 336.23695302 -128 342 C-128.72348633 342.31163086 -129.44697266 342.62326172 -130.19238281 342.94433594 C-146.9276502 350.20217333 -162.79219781 359.54613304 -177 371 C-178.39412109 372.10794922 -178.39412109 372.10794922 -179.81640625 373.23828125 C-186.0747919 378.27806608 -192.08019877 383.56816504 -198 389 C-203.60495437 383.39504563 -205.16427235 373.41344011 -207.0625 365.9375 C-207.31854004 364.92945313 -207.57458008 363.92140625 -207.83837891 362.8828125 C-208.57623728 359.9257429 -209.29431776 356.96489938 -210 354 C-210.1851416 353.22672363 -210.3702832 352.45344727 -210.56103516 351.65673828 C-214.80443981 333.2742924 -216.1434886 309.32569171 -207.97506714 291.80110168 C-206.8003053 288.42633165 -206.77369321 285.7165616 -206.8046875 282.14379883 C-206.80760803 281.47282166 -206.81052856 280.80184448 -206.8135376 280.11053467 C-206.82112939 278.65590778 -206.83334127 277.2012992 -206.84967041 275.74674416 C-206.87545143 273.41622366 -206.88829974 271.0859347 -206.89794922 268.7552948 C-206.92456134 262.94803073 -206.97213291 257.14097761 -207.02075195 251.3338623 C-207.73991505 164.09417977 -207.73991505 164.09417977 -190 129 C-189.34 128.67 -188.68 128.34 -188 128 C-187.72961914 128.68175293 -187.45923828 129.36350586 -187.18066406 130.06591797 C-172.52269735 166.88284778 -155.97242191 203.21701283 -132.10546875 235.109375 C-130 238 -130 238 -128.61328125 240.453125 C-125.22202681 246.23002531 -120.60234565 247.39394608 -114.44555664 249.07958984 C-97.97031907 253.6509488 -84.7678649 264.35978586 -72.4140625 275.796875 C-69.3375751 278.60454312 -66.1735599 281.3030968 -63 284 C-62.79697266 282.53433594 -62.79697266 282.53433594 -62.58984375 281.0390625 C-58.91611542 255.74247639 -52.99199486 230.76291573 -47.48022461 205.81713867 C-44.94377585 194.33364817 -42.45556972 182.84078846 -40.00308228 171.33908081 C-34.45255525 145.31692347 -28.85902217 119.31360392 -22.5017395 93.47485352 C-19.6140601 81.73073844 -16.95935655 69.94388648 -14.3692627 58.13092041 C-12.08281654 47.71491885 -9.66354103 37.34911122 -7.01831055 27.01708984 C-5.25900266 20.13039386 -3.66647153 13.21904238 -2.20410156 6.26318359 C-1.10205532 1.10205532 -1.10205532 1.10205532 0 0 Z " fill="#DE7D2D" transform="translate(495,114)"/>
<path d="M0 0 C9.5863285 4.93389619 14.81404765 13.25548249 18.38671875 23.1640625 C24.65018581 43.1941082 18.49594352 65.0079542 9.48486328 83.12255859 C7.62583762 86.57857741 5.52986669 89.87863596 3.38671875 93.1640625 C4.37671875 93.4940625 5.36671875 93.8240625 6.38671875 94.1640625 C5.63519531 94.24011719 4.88367188 94.31617188 4.109375 94.39453125 C0.66064107 95.36928101 -0.11508647 96.58605774 -2.17578125 99.4765625 C-40.47013965 149.60865552 -113.47966366 166.36763939 -172.43359375 174.45703125 C-177.45369593 175.09195784 -182.30823382 175.27404751 -187.36328125 175.2890625 C-191.0554175 175.49677166 -192.95151067 175.6741514 -195.9296875 177.87890625 C-198.16263486 180.50513202 -199.85928024 183.19575309 -201.61328125 186.1640625 C-202.39033269 187.35257289 -203.17319679 188.5372973 -203.9609375 189.71875 C-206.64130869 193.79280981 -209.13759538 197.96336509 -211.61328125 202.1640625 C-212.09249023 202.96183105 -212.57169922 203.75959961 -213.06542969 204.58154297 C-214.53267417 207.04909326 -215.95293394 209.53863116 -217.36328125 212.0390625 C-217.81815918 212.79888428 -218.27303711 213.55870605 -218.74169922 214.34155273 C-221.58122768 219.53684232 -221.92830707 222.86588546 -220.40917969 228.58300781 C-220.1465332 229.43475586 -219.88388672 230.28650391 -219.61328125 231.1640625 C-219.36868164 232.02354492 -219.12408203 232.88302734 -218.87207031 233.76855469 C-218.06457231 236.55559383 -217.21505202 239.32775756 -216.36328125 242.1015625 C-209.15816855 266.22442345 -204.27639503 291.09675409 -200.92578125 316.0390625 C-200.80630127 316.91723633 -200.68682129 317.79541016 -200.5637207 318.70019531 C-198.49914667 334.88789088 -198.37224211 351.1203388 -198.36328125 367.4140625 C-198.36260651 368.52178009 -198.36193176 369.62949768 -198.36123657 370.77078247 C-198.37763813 387.7571296 -198.90582914 404.36162518 -201.61328125 421.1640625 C-201.79020508 422.29730957 -201.96712891 423.43055664 -202.14941406 424.59814453 C-204.39888106 438.67576745 -207.38101557 452.33422249 -211.86035156 465.87158203 C-212.60448266 468.13727301 -213.31158681 470.4117806 -214.01171875 472.69140625 C-221.98157557 498.19494808 -237.4871255 539.68836905 -261.61328125 554.1640625 C-273.45230328 560.14432106 -286.43552118 565.25835566 -299.61328125 567.1640625 C-299.65066406 567.81890625 -299.68804687 568.47375 -299.7265625 569.1484375 C-299.82517578 570.51742188 -299.82517578 570.51742188 -299.92578125 571.9140625 C-299.98378906 572.79578125 -300.04179687 573.6775 -300.1015625 574.5859375 C-301.49060302 584.29861781 -304.27909651 592.22704848 -309.23828125 600.6640625 C-315.03223933 610.90761169 -320.08079105 621.30598363 -324.61328125 632.1640625 C-324.90960449 632.87256348 -325.20592773 633.58106445 -325.51123047 634.31103516 C-330.30687872 645.95918712 -333.19232516 657.81958345 -335.61328125 670.1640625 C-349.93279776 666.01585559 -362.10174352 658.28866114 -370.61328125 646.1640625 C-372.17292886 644.43407795 -373.75754713 642.72635772 -375.36328125 641.0390625 C-386.02362092 629.41863013 -395.18271175 616.46754429 -403.61328125 603.1640625 C-403.9784082 602.59075195 -404.34353516 602.01744141 -404.71972656 601.42675781 C-415.74711957 583.97083973 -425.2253944 565.44259568 -432.61328125 546.1640625 C-433.00225586 545.15311523 -433.39123047 544.14216797 -433.79199219 543.10058594 C-455.77561498 485.31849544 -462.77073993 424.67958695 -461.61328125 363.1640625 C-461.59394531 362.01744141 -461.57460938 360.87082031 -461.5546875 359.68945312 C-460.82449995 321.78412903 -456.0234873 284.15281717 -449.11816406 246.90429688 C-448.60003665 244.09217787 -448.10266963 241.2768247 -447.60546875 238.4609375 C-445.07758081 224.46373882 -441.94551269 210.62823066 -438.67578125 196.7890625 C-438.4707196 195.91389984 -438.26565796 195.03873718 -438.05438232 194.13705444 C-435.39702137 182.83352311 -432.36695481 171.70721128 -428.96313477 160.60595703 C-427.35865561 155.36787948 -425.93765872 150.08830738 -424.55078125 144.7890625 C-422.61857542 137.55296118 -420.43825058 130.5587755 -417.8125 123.54296875 C-416.49581759 119.83309812 -415.42220377 116.07767175 -414.36328125 112.2890625 C-411.47733969 102.10199605 -407.64220911 92.27359277 -403.84643555 82.39794922 C-402.71006226 79.41786596 -401.59414364 76.43072136 -400.48327637 73.4410553 C-397.20021181 64.61818529 -393.73277611 55.87967779 -390.17578125 47.1640625 C-389.89425201 46.4721582 -389.61272278 45.78025391 -389.32266235 45.06738281 C-385.23825229 35.03199148 -381.0788801 25.0370956 -376.61328125 15.1640625 C-375.95328125 15.4940625 -375.29328125 15.8240625 -374.61328125 16.1640625 C-373.80443225 18.66028562 -373.09630556 21.13047808 -372.42578125 23.6640625 C-364.95669607 50.23828135 -351.70917334 73.32340083 -332.61328125 93.1640625 C-331.76056641 94.11152344 -331.76056641 94.11152344 -330.890625 95.078125 C-315.64126053 111.53651836 -294.31541895 120.84765648 -273.61328125 128.1640625 C-273.64550781 126.9575 -273.67773438 125.7509375 -273.7109375 124.5078125 C-273.69805957 116.14819613 -270.3614807 108.85789343 -264.578125 102.87890625 C-253.44379702 93.16127209 -238.77302118 92.30854783 -224.61328125 93.1640625 C-222.57582645 93.37324262 -220.54767498 93.62502336 -218.5164032 93.88716125 C-207.76860506 95.26937683 -197.12590471 95.52241889 -186.30078125 95.4765625 C-184.95638977 95.47382828 -184.95638977 95.47382828 -183.58483887 95.47103882 C-165.71035512 95.40987941 -147.97206445 95.2196682 -131.61328125 87.1640625 C-130.9682666 86.85098145 -130.32325195 86.53790039 -129.65869141 86.21533203 C-93.17976401 68.19015367 -56.59607078 42.79247792 -31.66796875 10.65625 C-27.63719619 5.72558403 -23.3503268 2.88653014 -17.61328125 0.1640625 C-12.60777625 -2.33869 -5.20140865 -1.66382878 0 0 Z " fill="#DE7D2C" transform="translate(528.61328125,428.8359375)"/>
<path d="M0 0 C2 1 2 1 2.68261719 2.67626953 C2.88532227 3.40442871 3.08802734 4.13258789 3.296875 4.8828125 C3.53027588 5.70821533 3.76367676 6.53361816 4.00415039 7.3840332 C4.37334595 8.74081177 4.37334595 8.74081177 4.75 10.125 C5.14143188 11.53495239 5.14143188 11.53495239 5.54077148 12.97338867 C6.37033737 15.97966384 7.18608925 18.98945237 8 22 C8.25861816 22.94407715 8.51723633 23.8881543 8.78369141 24.86083984 C14.43758418 45.55099234 18.76535091 66.26478962 21.75 87.5 C21.85700226 88.25227875 21.96400452 89.0045575 22.07424927 89.77963257 C24.67908961 108.26311079 25.23974517 126.60340805 25.25 145.25 C25.25067474 146.35771759 25.25134949 147.46543518 25.25204468 148.60671997 C25.23564312 165.5930671 24.70745211 182.19756268 22 199 C21.82307617 200.13324707 21.64615234 201.26649414 21.46386719 202.43408203 C19.21440019 216.51170495 16.23226568 230.17015999 11.75292969 243.70751953 C11.00879859 245.97321051 10.30169444 248.2477181 9.6015625 250.52734375 C1.63170568 276.03088558 -13.87384425 317.52430655 -38 332 C-52.56824354 339.3588733 -67.99232422 344.00109365 -84 347 C-84.94617188 347.185625 -85.89234375 347.37125 -86.8671875 347.5625 C-105.20946591 350.12401519 -123.40748725 347.00532811 -138.6328125 336.1171875 C-149.33781249 327.15401801 -155.66310019 314.9609548 -159.6875 301.8125 C-159.89004395 301.16659912 -160.09258789 300.52069824 -160.30126953 299.85522461 C-163.87632003 287.50057763 -164.35125462 274.76105539 -164.31567383 261.99414062 C-164.31251158 259.63364458 -164.33609823 257.27440537 -164.36132812 254.9140625 C-164.40558766 244.30349315 -163.20238912 234.37062392 -161 224 C-160.80124268 223.04335449 -160.60248535 222.08670898 -160.39770508 221.10107422 C-148.01894961 164.34405936 -112.8406893 113.80760619 -74.265625 71.51171875 C-72.39500922 69.43791539 -70.55728527 67.34314622 -68.7265625 65.234375 C-64.95634141 60.91727023 -61.06075058 56.72859437 -57.125 52.5625 C-56.42246094 51.81822754 -55.71992188 51.07395508 -54.99609375 50.30712891 C-48.37015122 43.30610414 -41.74466068 36.41047292 -34.41796875 30.13671875 C-31.77583809 27.80191185 -29.21319784 25.39445256 -26.64868164 22.97509766 C-19.97387647 16.67836249 -13.18694282 10.71083672 -6 5 C-3.99150343 3.34318571 -1.99577173 1.67213307 0 0 Z " fill="#261B10" transform="translate(305,651)"/>
<path d="M0 0 C1.91246159 1.81709748 3.80009604 3.65661712 5.6875 5.5 C6.34492187 6.09554687 7.00234375 6.69109375 7.6796875 7.3046875 C26.32019489 24.5707796 36.24166274 51.91492361 39.6875 76.5 C39.79069098 79.26135589 39.85132067 81.99676675 39.85546875 84.7578125 C39.85879715 85.54211639 39.86212555 86.32642029 39.86555481 87.13449097 C39.87059881 88.79017556 39.87296392 90.44587023 39.87280273 92.1015625 C39.87497521 94.59653142 39.89311901 97.09104744 39.91210938 99.5859375 C39.95982429 112.40811985 38.52122514 123.99611339 34.5625 136.25 C34.25755615 137.19665527 33.9526123 138.14331055 33.63842773 139.11865234 C27.42972642 157.75262937 17.4545524 173.53457509 3.6875 187.5 C2.95789063 188.2425 2.22828125 188.985 1.4765625 189.75 C-15.77144267 206.16445845 -38.1785296 212.19179986 -61.37109375 211.81640625 C-68.80095886 211.53574594 -75.31146938 210.06957201 -82.3125 207.5 C-83.35277344 207.13777344 -84.39304687 206.77554688 -85.46484375 206.40234375 C-109.73373891 197.18828446 -128.73874087 175.51093344 -139.2890625 152.2578125 C-147.27437709 133.8628468 -150.72860086 115.74486491 -150.625 95.6875 C-150.62384186 94.98822388 -150.62268372 94.28894775 -150.62149048 93.56848145 C-150.58667387 82.91794424 -149.87345829 72.87547119 -147.3125 62.5 C-147.11914062 61.49582031 -146.92578125 60.49164062 -146.7265625 59.45703125 C-142.33689384 38.33531388 -130.24719988 19.60345355 -115.3125 4.5 C-114.70921875 3.82453125 -114.1059375 3.1490625 -113.484375 2.453125 C-100.68420324 -11.6399934 -79.53208121 -20.21468233 -60.875 -21.40234375 C-38.51137904 -22.01538161 -16.62406045 -15.3709382 0 0 Z " fill="#FCFCFD" transform="translate(518.3125,677.5)"/>
<path d="M0 0 C2.625 0.5625 2.625 0.5625 4.625 2.5625 C4.58746861 6.87110355 2.58024696 9.09605144 -0.37524414 12.06689453 C-1.21043579 12.86909424 -1.21043579 12.86909424 -2.0625 13.6875 C-2.92186157 14.53030518 -2.92186157 14.53030518 -3.79858398 15.39013672 C-9.92798698 21.28797527 -16.57243066 26.47165932 -23.375 31.5625 C-24.16777344 32.15804687 -24.96054687 32.75359375 -25.77734375 33.3671875 C-26.30457031 33.76164063 -26.83179688 34.15609375 -27.375 34.5625 C-6.55428937 52.93077116 21.62851917 63.36052964 48.74609375 67.7890625 C51.625 68.5625 51.625 68.5625 53.625 71.5625 C56.06961891 72.36217012 58.3701033 72.96994292 60.875 73.5 C61.62297852 73.6662085 62.37095703 73.83241699 63.14160156 74.00366211 C79.82179401 77.63179142 96.68406656 80.47906048 113.625 82.5625 C114.74455078 82.70075195 115.86410156 82.83900391 117.01757812 82.98144531 C160.74435217 88.20272857 210.44903958 89.96841261 248.07421875 63.359375 C250.5285243 61.63046144 253.03332244 60.07547933 255.625 58.5625 C253.26401092 68.48129211 250.64014957 78.26097799 247.47216797 87.95654297 C246.84753787 89.87795555 246.23049938 91.80184006 245.61767578 93.72705078 C231.93628113 136.66659674 213.45611391 177.72147731 188.89257812 215.56811523 C187.55236339 217.61923807 187.55236339 217.61923807 186.27685547 220.10400391 C184.3529333 222.9674234 182.64091179 224.12155907 179.6640625 225.83984375 C178.14329102 226.72313354 178.14329102 226.72313354 176.59179688 227.62426758 C175.48900391 228.24325928 174.38621094 228.86225098 173.25 229.5 C172.67999268 229.82342377 172.10998535 230.14684753 171.52270508 230.48007202 C147.98930685 243.81802714 122.85328226 256.61754639 96.625 263.5625 C96.56892578 261.72751953 96.56892578 261.72751953 96.51171875 259.85546875 C96.19349999 251.14935222 95.6759896 242.54858067 94.3125 233.9375 C94.15430786 232.92272583 94.15430786 232.92272583 93.99291992 231.88745117 C91.53326498 217.28967724 87.84272794 203.18461089 83.0625 189.1875 C82.80011536 188.41225983 82.53773071 187.63701965 82.26739502 186.83828735 C74.77624292 164.73232048 66.13431961 143.32012798 56.375 122.125 C55.99277283 121.2940683 55.61054565 120.4631366 55.21673584 119.60702515 C54.10352416 117.19484704 52.98384745 114.7858543 51.859375 112.37890625 C51.32349007 111.23085007 51.32349007 111.23085007 50.77677917 110.05960083 C48.57239967 105.39743366 46.16840169 100.92748561 43.60546875 96.453125 C40.79577199 91.33970303 39.6681777 87.54244107 40.1875 81.75 C40.21908203 81.04552734 40.25066406 80.34105469 40.28320312 79.61523438 C40.36349756 77.92905114 40.4889232 76.24510042 40.625 74.5625 C39.366875 74.43875 38.10875 74.315 36.8125 74.1875 C20.30188858 72.33005621 5.72501421 68.42971541 -8.375 59.5625 C-9.44878906 58.89992188 -10.52257812 58.23734375 -11.62890625 57.5546875 C-18.28868214 53.26534032 -24.53364152 48.45530471 -30.7578125 43.56640625 C-33.17952475 41.58162493 -33.17952475 41.58162493 -35.375 40.5625 C-37.31436256 41.59625419 -37.31436256 41.59625419 -39.5 43.125 C-50.23248277 49.73794393 -61.57951015 54.22234187 -74.375 52.5625 C-74.705 52.2325 -75.035 51.9025 -75.375 51.5625 C-75.08769945 49.22305264 -74.75563221 46.8885857 -74.375 44.5625 C-73.12847656 44.16160156 -71.88195312 43.76070312 -70.59765625 43.34765625 C-46.30265096 35.3253581 -27.30868038 23.06554037 -9.0625 5.3125 C-4.14215686 0.69035948 -4.14215686 0.69035948 0 0 Z " fill="#DE7E2D" transform="translate(674.375,878.4375)"/>
<path d="M0 0 C9.5863285 4.93389619 14.81404765 13.25548249 18.38671875 23.1640625 C24.65018581 43.1941082 18.49594352 65.0079542 9.48486328 83.12255859 C7.62583762 86.57857741 5.52986669 89.87863596 3.38671875 93.1640625 C4.37671875 93.4940625 5.36671875 93.8240625 6.38671875 94.1640625 C5.63519531 94.24011719 4.88367188 94.31617188 4.109375 94.39453125 C0.66064107 95.36928101 -0.11508647 96.58605774 -2.17578125 99.4765625 C-39.70902612 148.61226295 -111.11626044 165.86966611 -169.02026367 173.97070312 C-176.38055562 174.95030842 -183.70203665 175.68843483 -191.12109375 175.98828125 C-193.61259932 176.00406525 -193.61259932 176.00406525 -195.61328125 177.1640625 C-216.52217312 177.94632113 -242.11312497 175.6496883 -258.46875 161.35546875 C-267.83846619 151.78095002 -273.91342872 139.55172507 -273.92797852 126.13842773 C-273.74228105 116.95354525 -270.98809247 109.50570138 -264.578125 102.87890625 C-253.44379702 93.16127209 -238.77302118 92.30854783 -224.61328125 93.1640625 C-222.57582645 93.37324262 -220.54767498 93.62502336 -218.5164032 93.88716125 C-207.76860506 95.26937683 -197.12590471 95.52241889 -186.30078125 95.4765625 C-184.95638977 95.47382828 -184.95638977 95.47382828 -183.58483887 95.47103882 C-165.71035512 95.40987941 -147.97206445 95.2196682 -131.61328125 87.1640625 C-130.9682666 86.85098145 -130.32325195 86.53790039 -129.65869141 86.21533203 C-93.17976401 68.19015367 -56.59607078 42.79247792 -31.66796875 10.65625 C-27.63719619 5.72558403 -23.3503268 2.88653014 -17.61328125 0.1640625 C-12.60777625 -2.33869 -5.20140865 -1.66382878 0 0 Z " fill="#EAA029" transform="translate(528.61328125,428.8359375)"/>
<path d="M0 0 C10.1392935 8.79935962 19.93287689 21.81536019 21.8671875 35.48828125 C23.01898544 52.22225996 20.27323622 66.64325125 9.7265625 80.25 C7.52395824 82.76451151 5.24670041 85.14114267 2.8671875 87.48828125 C2.19171875 88.1740625 1.51625 88.85984375 0.8203125 89.56640625 C-20.92009657 110.32604499 -52.11051449 116.20956043 -81.10546875 115.82421875 C-108.43338481 114.91491644 -133.62874135 104.61792869 -153.1328125 85.48828125 C-153.75800781 84.88757813 -154.38320313 84.286875 -155.02734375 83.66796875 C-158.97455681 79.55146213 -161.73662815 74.96789517 -164.4453125 69.98828125 C-164.95215576 69.06281494 -164.95215576 69.06281494 -165.46923828 68.11865234 C-171.67041562 56.22809104 -171.89050558 42.1008284 -168.1640625 29.3515625 C-160.29888615 7.5137812 -143.84351797 -5.21385697 -123.7265625 -15.203125 C-84.44318822 -33.17797172 -33.45140311 -27.47514214 0 0 Z " fill="#261B10" transform="translate(964.1328125,759.51171875)"/>
<path d="M0 0 C2.23091484 2.23091484 2.84398208 3.81914366 3.9609375 6.75 C4.34362793 7.73766357 4.72631836 8.72532715 5.12060547 9.74291992 C5.53455566 10.81775635 5.94850586 11.89259277 6.375 13 C19.40170521 46.10295963 35.51128382 78.53587981 56.89453125 107.109375 C59 110 59 110 60.38671875 112.453125 C63.77797319 118.23002531 68.39765435 119.39394608 74.55444336 121.07958984 C105.94660662 129.78992534 130.24376294 159.39618973 148.6171875 184.6171875 C149.00503418 185.14940918 149.39288086 185.68163086 149.79248047 186.22998047 C151.2936983 188.43051206 152.64607267 190.70659292 154 193 C153.19594727 193.06993164 152.39189453 193.13986328 151.56347656 193.21191406 C135.50955349 194.63638484 119.70603937 196.24427518 104 200 C103.09233887 200.20995605 102.18467773 200.41991211 101.24951172 200.63623047 C87.27580003 203.90031885 74.13360217 208.23010036 61 214 C60.27651367 214.31163086 59.55302734 214.62326172 58.80761719 214.94433594 C42.0723498 222.20217333 26.20780219 231.54613304 12 243 C11.07058594 243.73863281 10.14117187 244.47726562 9.18359375 245.23828125 C2.9252081 250.27806608 -3.08019877 255.56816504 -9 261 C-14.60495437 255.39504563 -16.16427235 245.41344011 -18.0625 237.9375 C-18.31854004 236.92945313 -18.57458008 235.92140625 -18.83837891 234.8828125 C-19.57623728 231.9257429 -20.29431776 228.96489938 -21 226 C-21.1851416 225.22672363 -21.3702832 224.45344727 -21.56103516 223.65673828 C-25.80443981 205.2742924 -27.1434886 181.32569171 -18.97506714 163.80110168 C-17.8003053 160.42633165 -17.77369321 157.7165616 -17.8046875 154.14379883 C-17.80760803 153.47282166 -17.81052856 152.80184448 -17.8135376 152.11053467 C-17.82112939 150.65590778 -17.83334127 149.2012992 -17.84967041 147.74674416 C-17.87545143 145.41622366 -17.88829974 143.0859347 -17.89794922 140.7552948 C-17.92456134 134.94803073 -17.97213291 129.14097761 -18.02075195 123.3338623 C-18.35610719 82.65284748 -18.35552017 38.75344229 -1 1 C-0.67 0.67 -0.34 0.34 0 0 Z " fill="#EAA028" transform="translate(306,242)"/>
<path d="M0 0 C14.87292403 14.20070147 18.13680808 39.24354908 18.625 58.75 C18.33763356 74.9270403 16.50732414 94.83276379 7.3125 108.625 C4.77039678 109.59413911 2.28896928 110.41393904 -0.3125 111.1875 C-19.75401457 117.35419811 -38.05745767 126.01889685 -56.1640625 135.33105469 C-59.6585113 137.12290634 -63.1717319 138.87540785 -66.6875 140.625 C-82.68218215 127.63439521 -90.75738803 108.76991406 -93.6875 88.625 C-95.39026024 58.88861432 -90.01682336 30.46605443 -69.6875 7.625 C-68.74777344 6.56152344 -68.74777344 6.56152344 -67.7890625 5.4765625 C-49.18951791 -14.33764623 -21.10954341 -17.40814402 0 0 Z " fill="#261B10" transform="translate(733.6875,645.375)"/>
<path d="M0 0 C2.23641542 1.66297557 4.25714897 3.4145459 6.28515625 5.32421875 C6.95675781 5.906875 7.62835938 6.48953125 8.3203125 7.08984375 C20.80125621 18.53672083 28.38721653 35.46067918 29.47412109 52.24169922 C30.45893627 75.56795318 27.32579958 96.301024 11.28515625 114.32421875 C10.74246094 114.948125 10.19976562 115.57203125 9.640625 116.21484375 C0.85492567 125.67953155 -11.58385 131.73349025 -24.39453125 132.48046875 C-40.28792599 132.97584729 -52.9651108 127.47594219 -64.50244141 116.70068359 C-69.21502216 112.07482796 -72.62904535 107.13184958 -75.71484375 101.32421875 C-76.25882812 100.31617188 -76.8028125 99.308125 -77.36328125 98.26953125 C-86.5746493 79.89172866 -87.85092278 56.63137228 -82.04296875 36.9375 C-76.11152102 20.8004731 -65.85056881 4.44270121 -49.74609375 -3.05859375 C-32.78927064 -10.26112784 -15.87515154 -9.79919426 0 0 Z " fill="#261B10" transform="translate(492.71484375,704.67578125)"/>
<path d="M0 0 C0.8667334 -0.00555908 1.7334668 -0.01111816 2.62646484 -0.0168457 C23.87223341 0.21903918 43.19511185 10.17760118 58.015625 25.01953125 C63.06417148 30.42328984 67.47250934 35.99056417 71.3125 42.3125 C70.9825 42.9725 70.6525 43.6325 70.3125 44.3125 C69.87421875 43.87679687 69.4359375 43.44109375 68.984375 42.9921875 C59.07789892 33.68976483 48.82761092 29.99827024 35.3984375 30.1640625 C22.61300675 30.7790579 12.89304315 36.06208854 3.3125 44.3125 C2.71824219 44.81136719 2.12398437 45.31023438 1.51171875 45.82421875 C-14.56052526 60.49245064 -23.5153745 85.28310384 -24.89404297 106.48950195 C-24.98962395 109.72514089 -25.01683172 112.95051896 -25 116.1875 C-24.99436035 117.33009277 -24.9887207 118.47268555 -24.98291016 119.64990234 C-24.67403044 141.1216301 -17.66765026 161.66264478 -2.4453125 177.0859375 C-0.6875 179.3125 -0.6875 179.3125 -0.6875 183.3125 C-3.3018568 184.7385128 -5.91712977 186.16214958 -8.5390625 187.57421875 C-10.57902128 188.70049872 -12.59707082 189.86780402 -14.5859375 191.08203125 C-15.50632812 191.63246094 -16.42671875 192.18289063 -17.375 192.75 C-18.61830078 193.52150391 -18.61830078 193.52150391 -19.88671875 194.30859375 C-25.17910312 196.20558508 -29.38634344 194.90598528 -34.29296875 192.66796875 C-35.49859683 191.96486573 -36.69243418 191.24123614 -37.875 190.5 C-38.51574463 190.10546631 -39.15648926 189.71093262 -39.81665039 189.30444336 C-59.05967413 177.00798275 -72.02503247 158.40814915 -79.625 137.125 C-79.90738525 136.3427002 -80.18977051 135.56040039 -80.48071289 134.75439453 C-89.14407065 109.09088974 -87.2698135 77.2293046 -75.46875 52.859375 C-74.8809375 51.68890625 -74.293125 50.5184375 -73.6875 49.3125 C-72.96046875 47.80429687 -72.96046875 47.80429687 -72.21875 46.265625 C-68.61170774 39.17177522 -63.97467627 33.23585683 -58.6875 27.3125 C-57.92566406 26.45527344 -57.16382813 25.59804688 -56.37890625 24.71484375 C-41.4167979 8.81913915 -21.76950414 0.1168344 0 0 Z " fill="#FCFCFD" transform="translate(665.6875,604.6875)"/>
<path d="M0 0 C2.96383555 -0.45738203 4.58340747 -0.51621474 7.40625 0.546875 C10.91167678 4.23932913 13.5556898 8.2735388 16.20703125 12.60449219 C18.05951182 15.60496764 20.05284382 18.50302926 22.03125 21.421875 C23.15867483 23.12860903 24.28466336 24.83629873 25.40625 26.546875 C16.74390387 49.06897495 -37.60669912 74.6217667 -59.59375 84.546875 C-75.85246828 90.84814497 -93.08352197 90.83711921 -110.28125 90.859375 C-111.14862793 90.86286957 -112.01600586 90.86636414 -112.90966797 90.8699646 C-124.93623907 90.89678428 -136.67130479 90.12443402 -148.59375 88.546875 C-149.45929994 86.50665015 -150.32477415 84.46639402 -151.18969727 82.42590332 C-151.85672981 80.85505339 -152.52783231 79.28593023 -153.20117188 77.71777344 C-153.48541016 77.0374707 -153.76964844 76.35716797 -154.0625 75.65625 C-154.35576172 74.96499023 -154.64902344 74.27373047 -154.95117188 73.56152344 C-155.59375 71.546875 -155.59375 71.546875 -155.59375 67.546875 C-153.75131729 65.49034619 -151.9691997 63.73169488 -149.90625 61.921875 C-149.31827637 61.39480957 -148.73030273 60.86774414 -148.12451172 60.32470703 C-142.19349265 55.07359684 -136.02306926 50.17314483 -129.59375 45.546875 C-129.04058105 45.14791016 -128.48741211 44.74894531 -127.91748047 44.33789062 C-92.50135989 19.10885606 -48.77537609 2.92263138 -5.1875 0.71875 C-2.57684039 0.60704406 -2.57684039 0.60704406 0 0 Z " fill="#271B10" transform="translate(452.59375,434.453125)"/>
<path d="M0 0 C2.23091484 2.23091484 2.84398208 3.81914366 3.9609375 6.75 C4.34362793 7.73766357 4.72631836 8.72532715 5.12060547 9.74291992 C5.53455566 10.81775635 5.94850586 11.89259277 6.375 13 C19.4069997 46.1164138 35.55599067 78.21862438 56.78125 106.89453125 C59.35702384 110.49970767 61.69221788 114.21974207 64 118 C63.35039307 117.98952637 62.70078613 117.97905273 62.03149414 117.96826172 C59.04186999 117.92627038 56.05230821 117.90053833 53.0625 117.875 C51.53012695 117.84986328 51.53012695 117.84986328 49.96679688 117.82421875 C43.68197393 117.78406014 38.04855511 118.2830481 32 120 C30.86175781 120.32097656 29.72351563 120.64195312 28.55078125 120.97265625 C10.63662146 127.00166781 -3.44230613 137.82262649 -13.1875 154.05859375 C-15 157 -15 157 -17 159 C-18.08675489 145.91141919 -18.18619552 132.85024797 -18.18530273 119.72265625 C-18.18747463 116.16654209 -18.20565226 112.61074652 -18.22460938 109.0546875 C-18.31343981 73.28341467 -16.18988266 34.04253359 -1 1 C-0.67 0.67 -0.34 0.34 0 0 Z " fill="#DE7D2C" transform="translate(306,242)"/>
<path d="M0 0 C2.625 0.5625 2.625 0.5625 4.625 2.5625 C4.58746861 6.87110355 2.58024696 9.09605144 -0.37524414 12.06689453 C-1.21043579 12.86909424 -1.21043579 12.86909424 -2.0625 13.6875 C-2.92186157 14.53030518 -2.92186157 14.53030518 -3.79858398 15.39013672 C-9.92798698 21.28797527 -16.57243066 26.47165932 -23.375 31.5625 C-24.16777344 32.15804687 -24.96054687 32.75359375 -25.77734375 33.3671875 C-26.30457031 33.76164063 -26.83179688 34.15609375 -27.375 34.5625 C-5.60471072 53.7685004 23.47520427 63.52258024 51.625 68.5625 C52.00718767 70.21864657 52.33895102 71.88707024 52.625 73.5625 C50.40070609 75.78679391 46.14412386 74.99425572 43.15991211 75.01342773 C24.88315336 74.59284515 6.95804138 69.4197617 -8.375 59.5625 C-9.44363281 58.90121094 -10.51226563 58.23992188 -11.61328125 57.55859375 C-18.28348276 53.27616866 -24.52985951 48.45827536 -30.7578125 43.56640625 C-33.17952475 41.58162493 -33.17952475 41.58162493 -35.375 40.5625 C-37.31436256 41.59625419 -37.31436256 41.59625419 -39.5 43.125 C-50.23248277 49.73794393 -61.57951015 54.22234187 -74.375 52.5625 C-74.705 52.2325 -75.035 51.9025 -75.375 51.5625 C-75.08769945 49.22305264 -74.75563221 46.8885857 -74.375 44.5625 C-73.12847656 44.16160156 -71.88195312 43.76070312 -70.59765625 43.34765625 C-46.30265096 35.3253581 -27.30868038 23.06554037 -9.0625 5.3125 C-4.14215686 0.69035948 -4.14215686 0.69035948 0 0 Z " fill="#2B1F11" transform="translate(674.375,878.4375)"/>
<path d="M0 0 C3.96 0.33 7.92 0.66 12 1 C12 1.33 12 1.66 12 2 C8.37 2.33 4.74 2.66 1 3 C0.67 2.01 0.34 1.02 0 0 Z " fill="#E4B551" transform="translate(872,733)"/>
</svg>
